<svg xmlns="http://www.w3.org/2000/svg" fill='#888a91' viewBox="-265 388.9 64 64" xml:space="preserve"><path d="M-244.5 411h-9.9c-.9 0-1.6-.7-1.6-1.6v-9.9c0-.9.7-1.6 1.6-1.6h9.9c.9 0 1.6.7 1.6 1.6v9.9c0 .9-.7 1.6-1.6 1.6zM-228.1 411h-9.9c-.9 0-1.6-.7-1.6-1.6v-9.9c0-.9.7-1.6 1.6-1.6h9.9c.9 0 1.6.7 1.6 1.6v9.9c.1.9-.7 1.6-1.6 1.6zM-211.6 411h-9.9c-.9 0-1.6-.7-1.6-1.6v-9.9c0-.9.7-1.6 1.6-1.6h9.9c.9 0 1.6.7 1.6 1.6v9.9c0 .9-.7 1.6-1.6 1.6zM-244.5 427.5h-9.9c-.9 0-1.6-.7-1.6-1.6V416c0-.9.7-1.6 1.6-1.6h9.9c.9 0 1.6.7 1.6 1.6v9.9c0 .8-.7 1.6-1.6 1.6zM-228.1 427.5h-9.9c-.9 0-1.6-.7-1.6-1.6V416c0-.9.7-1.6 1.6-1.6h9.9c.9 0 1.6.7 1.6 1.6v9.9c.1.8-.7 1.6-1.6 1.6zM-211.6 427.5h-9.9c-.9 0-1.6-.7-1.6-1.6V416c0-.9.7-1.6 1.6-1.6h9.9c.9 0 1.6.7 1.6 1.6v9.9c0 .8-.7 1.6-1.6 1.6zM-244.5 443.9h-9.9c-.9 0-1.6-.7-1.6-1.6v-9.9c0-.9.7-1.6 1.6-1.6h9.9c.9 0 1.6.7 1.6 1.6v9.9c0 .9-.7 1.6-1.6 1.6zM-228.1 443.9h-9.9c-.9 0-1.6-.7-1.6-1.6v-9.9c0-.9.7-1.6 1.6-1.6h9.9c.9 0 1.6.7 1.6 1.6v9.9c.1.9-.7 1.6-1.6 1.6zM-211.6 443.9h-9.9c-.9 0-1.6-.7-1.6-1.6v-9.9c0-.9.7-1.6 1.6-1.6h9.9c.9 0 1.6.7 1.6 1.6v9.9c0 .9-.7 1.6-1.6 1.6z" /></svg>